<?xml version="1.0" standalone="no"?>
<!DOCTYPE svg PUBLIC "-//W3C//DTD SVG 20010904//EN"
 "http://www.w3.org/TR/2001/REC-SVG-20010904/DTD/svg10.dtd">
<svg version="1.0" xmlns="http://www.w3.org/2000/svg"
 width="1024.000000pt" height="1024.000000pt" viewBox="0 0 1024.000000 1024.000000"
 preserveAspectRatio="xMidYMid meet">

<g transform="translate(0.000000,1024.000000) scale(0.100000,-0.100000)"
fill="#000000" stroke="none">
<path d="M5087 9493 c-11 -11 -8 -48 5 -61 30 -30 75 0 64 43 -5 19 -13 25
-35 25 -15 0 -31 -3 -34 -7z"/>
<path d="M3120 9384 c0 -55 33 -172 68 -249 58 -123 194 -309 345 -472 l67
-71 -46 -78 c-104 -175 -163 -385 -164 -576 l0 -68 -45 0 -45 0 4 -132 c6
-197 35 -313 120 -487 20 -41 35 -75 34 -76 -2 -1 -43 -18 -93 -39 -342 -142
-604 -376 -755 -676 -57 -115 -82 -183 -114 -320 -49 -204 -57 -286 -63 -647
-8 -454 7 -633 83 -1013 123 -618 416 -1192 883 -1732 l101 -117 0 -80 0 -80
123 -104 c126 -107 297 -245 354 -285 l33 -23 0 181 0 181 28 -21 c15 -12 56
-49 91 -83 l63 -61 -6 -81 c-4 -44 -11 -107 -16 -140 -20 -132 -42 -298 -59
-447 l-18 -158 181 -2 181 -3 3 -173 2 -172 135 0 135 0 0 -24 c0 -32 10 -43
209 -220 l175 -154 45 36 c25 20 112 96 192 169 110 100 148 140 152 163 l6
30 136 0 135 0 0 176 0 175 175 -2 c96 -1 178 0 181 3 2 3 -18 188 -46 411
-27 224 -50 408 -50 410 0 6 177 157 184 157 3 0 6 -79 6 -176 l0 -175 33 23
c43 31 275 217 362 291 117 100 115 97 115 186 l0 78 53 60 c365 409 658 902
817 1373 86 256 139 502 176 820 22 180 24 807 5 965 -51 414 -168 691 -390
928 -146 155 -359 295 -564 372 -26 10 -50 22 -53 26 -2 5 11 40 31 78 86 172
115 292 115 480 l0 130 -42 3 -43 3 -6 125 c-4 87 -14 155 -33 225 -25 96
-100 263 -150 335 l-24 35 95 99 c224 233 364 475 388 670 l7 60 -38 -34 c-94
-82 -276 -141 -664 -215 -107 -21 -205 -44 -217 -51 -12 -8 -77 -96 -144 -196
-165 -249 -187 -278 -210 -278 -10 0 -19 4 -19 9 0 7 82 145 190 320 l34 54
-45 38 c-166 144 -412 254 -662 294 -108 18 -303 19 -413 4 -266 -37 -540
-151 -698 -290 -25 -22 -46 -44 -46 -48 0 -4 50 -86 110 -181 100 -158 125
-210 102 -210 -5 0 -15 6 -24 13 -18 14 -165 222 -223 315 -22 35 -58 87 -81
115 l-40 52 -260 52 c-388 79 -528 125 -617 203 l-37 32 0 -38z m2122 -95 c90
-19 227 -91 283 -149 l50 -51 -24 -18 c-20 -15 -23 -24 -17 -52 3 -19 10 -52
14 -74 11 -58 -3 -171 -29 -240 -16 -44 -38 -76 -83 -121 -180 -180 -433 -186
-618 -15 -117 107 -162 259 -123 410 16 62 16 64 -4 85 -12 12 -21 26 -20 32
0 5 26 31 57 57 65 56 168 111 245 132 64 17 198 19 269 4z m-627 -145 c-14
-34 -110 -148 -189 -223 l-36 -35 -1 40 c-2 58 0 67 24 91 28 28 199 161 210
162 4 1 0 -15 -8 -35z m1105 -40 c30 -23 75 -60 99 -81 l43 -38 -8 -53 -9 -53
-109 110 c-92 92 -109 115 -116 150 l-7 42 26 -17 c14 -10 51 -36 81 -60z
m-1990 -40 c91 -14 174 -28 185 -30 12 -2 45 -44 88 -110 37 -59 66 -108 64
-110 -4 -4 -510 256 -537 276 -12 9 -10 10 10 5 14 -2 99 -17 190 -31z m2975
18 c-58 -35 -522 -272 -533 -272 -13 0 123 211 141 221 7 4 44 10 82 13 39 4
124 18 190 30 151 29 156 30 120 8z m-3145 -173 c36 -20 151 -83 255 -139 287
-156 653 -368 884 -511 113 -71 210 -130 214 -132 5 -1 0 -23 -11 -47 -10 -25
-22 -62 -26 -82 -4 -21 -9 -38 -12 -38 -4 0 -200 105 -304 163 -25 13 -136 75
-248 136 -136 74 -223 128 -262 163 -32 29 -136 123 -231 209 -96 86 -185 169
-199 185 -14 16 -53 53 -85 83 -67 60 -66 60 25 10z m3165 5 c-22 -20 -60 -52
-85 -72 -58 -46 -69 -57 -50 -47 8 4 -21 -26 -65 -66 -44 -41 -151 -141 -238
-222 -120 -113 -172 -155 -220 -177 -34 -16 -78 -38 -97 -49 -19 -11 -105 -58
-190 -105 -150 -81 -232 -126 -352 -195 l-57 -32 -7 28 c-12 54 -26 98 -40
120 -13 20 -3 27 304 210 456 272 689 406 972 558 69 36 129 71 135 76 5 5 14
9 20 9 5 0 -8 -16 -30 -36z m-2040 -259 c57 -115 134 -185 260 -236 52 -21 76
-24 175 -23 124 0 188 18 257 70 17 13 40 24 51 24 22 0 99 107 132 183 12 27
27 88 33 137 l11 89 23 -34 c40 -59 24 -150 -46 -265 -37 -61 -42 -80 -21 -80
18 0 80 71 104 118 12 26 29 68 37 94 l13 48 23 -22 c30 -29 29 -53 -8 -126
-59 -119 -165 -209 -404 -342 -127 -71 -130 -72 -205 -73 l-76 -1 -160 92
c-186 109 -268 171 -324 248 -77 103 -96 168 -62 212 l18 23 18 -58 c34 -109
98 -203 137 -203 26 0 24 12 -11 64 -42 61 -69 125 -76 178 -5 35 -1 54 17 89
l22 44 14 -89 c9 -62 23 -110 48 -161z m-900 -175 c3 -11 12 -19 18 -17 7 1
12 -6 12 -15 0 -10 7 -23 15 -30 12 -11 12 -10 0 7 -14 18 -14 19 3 6 23 -18
22 -24 -18 -87 -19 -30 -35 -60 -35 -66 0 -20 -13 1 -15 25 -2 12 -8 21 -14
19 -8 -2 -10 5 -6 18 4 11 2 20 -4 20 -6 0 -12 -6 -12 -12 -1 -7 -3 -24 -4
-38 -4 -33 9 -46 53 -61 45 -14 125 -60 118 -67 -3 -2 -33 6 -67 18 -76 29
-79 26 -104 -94 -25 -117 -17 -302 16 -401 30 -89 101 -214 158 -277 155 -173
418 -264 659 -229 95 14 202 48 265 85 24 14 46 26 49 26 3 0 51 -69 106 -152
109 -164 151 -220 152 -201 0 17 230 355 238 351 4 -2 36 -18 71 -36 101 -53
196 -74 346 -76 111 -1 141 2 205 22 265 83 440 260 511 518 30 109 31 287 1
393 -11 40 -25 78 -30 83 -5 5 -29 1 -61 -12 -57 -22 -71 -24 -71 -12 0 5 34
25 75 44 55 26 70 37 56 41 -11 3 -27 21 -35 41 -9 21 -24 49 -35 64 l-19 27
28 34 c18 21 33 30 41 26 7 -5 10 -4 6 1 -6 10 9 42 15 34 128 -174 190 -348
201 -564 3 -48 10 -93 16 -99 19 -19 13 -185 -9 -271 -55 -214 -231 -421 -457
-535 -74 -37 -83 -38 -83 -8 -1 55 -12 55 -137 -6 -189 -91 -369 -141 -602
-168 -145 -16 -555 -7 -681 16 -178 32 -339 82 -468 145 -68 33 -127 60 -132
60 -4 0 -11 -18 -15 -40 l-7 -40 -35 15 c-101 42 -276 176 -351 268 -75 94
-116 165 -148 264 -24 74 -29 105 -29 191 0 80 3 106 15 115 11 9 15 35 17 97
2 131 41 285 99 404 23 45 98 156 106 156 4 0 9 -9 13 -20z m-32 -177 c-3 -7
-6 -13 -8 -13 -2 0 -5 6 -8 13 -3 8 1 14 8 14 7 0 11 -6 8 -14z m232 -63 c10
-11 26 -22 36 -25 18 -6 18 -7 0 -43 -43 -84 -64 -220 -50 -320 26 -185 172
-337 368 -382 101 -24 241 2 342 63 l55 33 23 -80 c13 -45 25 -86 28 -93 2 -7
-17 -23 -45 -37 l-50 -25 -21 35 c-18 29 -26 35 -44 30 -12 -4 -47 -12 -77
-19 -30 -6 -57 -14 -60 -18 -14 -18 -92 -14 -174 8 -114 30 -195 73 -272 146
-34 31 -65 57 -70 57 -11 0 -80 142 -93 195 -22 81 -24 197 -7 285 17 85 67
210 84 210 5 0 17 -9 27 -20z m2325 -27 c106 -240 70 -527 -85 -674 -84 -79
-153 -124 -231 -149 -38 -12 -79 -26 -92 -31 -29 -11 -149 -12 -156 0 -3 4
-23 11 -44 13 -21 3 -65 17 -98 30 -41 16 -61 20 -61 12 0 -7 6 -10 13 -7 23
9 24 -14 1 -41 -22 -25 -45 -37 -32 -16 3 5 0 7 -8 4 -8 -3 -28 3 -44 13 l-30
18 17 37 c16 36 17 37 39 22 12 -9 24 -14 27 -12 2 3 -7 11 -21 18 -24 13 -25
18 -19 59 8 56 10 59 32 43 38 -28 142 -71 200 -83 123 -26 291 20 397 107
155 127 198 363 105 571 l-28 61 29 12 c15 7 34 18 40 26 18 22 27 17 49 -33z
m-2105 -39 l24 -15 -38 -59 c-85 -131 -70 -276 40 -374 94 -85 210 -104 322
-53 32 14 55 22 52 17 -13 -22 6 -8 45 33 23 23 53 67 68 97 14 30 28 48 30
41 4 -11 6 -11 13 0 6 11 11 11 21 1 18 -18 -15 -107 -61 -169 -28 -36 -56
-58 -115 -88 -76 -39 -82 -40 -175 -40 -90 0 -100 2 -159 34 -110 59 -168 132
-198 246 -8 28 -14 73 -14 100 0 87 68 245 106 245 8 0 25 -7 39 -16z m1903
-28 c48 -71 65 -134 59 -229 -8 -154 -76 -254 -216 -321 -59 -28 -76 -31 -156
-31 -82 0 -97 3 -157 33 -80 39 -149 111 -176 185 -21 55 -13 91 16 79 11 -4
13 -1 7 8 -5 8 -3 11 5 8 7 -2 21 -26 31 -53 23 -60 78 -118 144 -153 42 -22
64 -26 145 -27 112 -2 126 3 198 79 69 73 86 113 86 206 0 77 -15 120 -66 193
-11 16 -19 29 -17 31 42 34 70 32 97 -8z m-1790 -42 c15 -10 22 -25 22 -47 0
-38 29 -90 63 -112 14 -9 49 -18 78 -22 58 -6 91 -26 82 -49 -3 -8 0 -14 5
-14 13 0 52 53 52 70 0 6 10 10 23 8 32 -4 33 -40 3 -103 -42 -84 -142 -135
-239 -121 -104 16 -197 122 -197 225 0 57 54 181 79 181 4 0 17 -7 29 -16z
m1698 -101 c60 -154 -109 -329 -274 -284 -96 25 -178 117 -170 188 4 37 45 46
50 11 3 -26 43 -35 52 -12 4 9 23 14 56 14 31 0 66 8 89 20 41 21 81 74 81
108 0 12 9 23 21 27 13 4 18 12 15 21 -3 9 -1 12 4 9 6 -3 10 0 10 7 1 18 46
-58 66 -109z m-855 62 c73 -38 55 -134 -29 -151 -26 -5 -36 -1 -62 24 -39 39
-39 74 -1 113 33 33 50 35 92 14z m-31 -305 c31 0 63 9 94 25 l46 24 0 -59 c0
-101 -36 -240 -109 -425 l-40 -100 -35 76 c-73 158 -133 391 -120 475 l6 40
55 -28 c38 -19 71 -28 103 -28z m790 -90 c-8 -5 -19 -10 -25 -10 -5 0 -3 5 5
10 8 5 20 10 25 10 6 0 3 -5 -5 -10z m-2248 -625 c38 -35 87 -72 109 -82 21
-9 39 -20 39 -24 0 -14 -71 -20 -109 -9 -54 14 -98 54 -111 98 -11 41 -13 82
-4 82 3 0 37 -29 76 -65z m2957 -37 c-6 -15 -24 -37 -40 -48 -33 -25 -117 -42
-153 -32 -25 7 -23 9 48 56 41 27 92 67 113 88 l38 39 3 -37 c2 -20 -2 -50 -9
-66z m387 -154 c254 -163 443 -428 515 -722 50 -205 71 -376 76 -617 13 -589
-72 -1110 -259 -1580 -76 -192 -265 -545 -311 -584 -8 -6 17 49 54 123 56 108
68 141 64 168 -4 28 -4 30 4 8 5 -14 10 -18 11 -10 4 36 9 53 18 59 21 13 41
67 30 82 -8 12 -9 11 -5 -2 7 -22 -28 -79 -48 -79 -9 0 -13 -4 -10 -10 3 -5 1
-10 -4 -10 -6 0 -11 6 -11 14 0 8 -4 16 -9 18 -5 2 -33 25 -61 52 -28 26 -52
47 -54 45 -2 -2 -34 -56 -72 -119 -96 -160 -226 -350 -236 -344 -4 3 -8 41 -8
84 l0 79 61 75 c59 74 77 91 66 63 -3 -8 -1 -20 5 -28 8 -11 9 -11 4 3 -3 10
-1 20 3 23 5 2 14 26 20 52 7 27 41 100 77 164 125 224 214 494 260 784 26
162 28 565 4 745 -24 179 -53 329 -85 440 -13 47 -20 89 -16 93 4 4 92 7 194
5 l187 -3 0 28 0 27 -209 0 c-114 0 -235 -3 -268 -6 l-60 -7 18 -71 c78 -298
110 -745 78 -1071 -13 -135 -51 -350 -84 -470 -32 -118 -108 -329 -127 -349
-13 -16 -10 3 21 135 47 195 70 324 64 347 -3 13 -1 22 6 22 6 0 10 14 10 33
-2 27 -2 28 -6 7 -3 -14 -9 -29 -14 -34 -5 -6 -10 -28 -10 -50 -1 -23 -4 -31
-6 -18 -2 12 -9 22 -15 22 -6 0 -8 -10 -5 -23 7 -25 -1 -40 -23 -45 -8 -2 -12
0 -7 4 11 11 -33 54 -55 54 -11 0 -24 -12 -31 -27 -6 -16 -16 -31 -20 -34 -11
-8 32 -39 54 -39 9 0 22 7 29 15 7 8 17 15 23 15 6 0 7 -3 4 -7 -4 -3 -1 -13
6 -22 10 -14 10 -14 -4 -3 -14 10 -18 10 -22 -2 -3 -8 -15 -19 -25 -25 -25
-13 -66 20 -83 67 -9 27 -8 37 6 58 10 16 22 23 32 20 9 -4 22 1 30 11 14 17
14 17 9 1 -3 -10 0 -18 6 -18 6 0 20 -7 30 -17 10 -9 21 -13 25 -10 4 4 -2 14
-13 22 -18 14 -18 14 3 10 15 -2 26 3 33 15 13 24 2 70 -16 70 -10 0 -14 13
-14 45 0 35 -6 51 -23 68 -13 12 -26 30 -30 40 -4 10 -11 16 -16 13 -5 -4 -12
0 -14 6 -4 10 -8 9 -17 -2 -10 -13 -11 -12 -6 3 4 12 2 17 -6 15 -12 -4 -18
-23 -21 -72 -1 -16 -9 -31 -17 -33 -13 -4 -13 -3 0 7 12 9 9 11 -15 6 l-30 -5
28 12 c37 15 34 25 -5 22 -48 -4 -48 -4 -48 -16 0 -5 6 -7 13 -3 8 5 7 2 -2
-10 -8 -9 -21 -14 -29 -11 -15 5 -59 -33 -55 -47 2 -4 -7 -12 -18 -19 -17 -8
-20 -8 -14 1 5 8 3 11 -6 8 -8 -3 -13 -12 -11 -19 2 -8 0 -11 -4 -7 -4 4 -14
2 -23 -4 -9 -7 2 7 23 30 22 23 42 40 44 37 3 -3 12 3 21 13 28 31 196 139
209 135 21 -8 13 -21 -10 -16 -22 4 -22 4 1 -10 25 -15 65 -12 41 3 -6 4 -12
14 -14 22 -1 9 -7 22 -13 29 -22 28 -24 56 -5 79 l19 24 14 -29 c8 -16 27 -34
42 -39 23 -9 31 -6 54 16 27 28 27 26 -15 73 -7 8 -30 15 -49 15 -30 0 -44 -9
-87 -52 -56 -57 -116 -108 -127 -108 -3 0 -4 11 -1 25 2 14 8 25 13 25 4 0 7
8 7 18 -2 27 34 152 44 152 5 0 6 5 3 10 -3 6 -2 10 3 10 14 0 27 40 56 165
72 319 80 392 71 650 -4 116 -9 248 -10 295 -2 47 -12 122 -23 167 l-20 82 23
68 c12 37 28 100 35 140 l12 72 64 -31 c62 -31 64 -32 98 -15 36 17 76 78 76
116 0 13 -39 51 -118 114 -65 52 -124 103 -132 113 -18 21 68 -25 186 -102z
m-3616 93 c0 -2 -54 -46 -120 -97 -66 -51 -122 -102 -126 -112 -7 -24 49 -111
83 -129 19 -10 32 -8 81 14 33 15 62 27 65 27 3 0 8 -24 12 -52 4 -29 21 -93
37 -142 26 -78 28 -94 19 -131 -19 -75 -50 -473 -51 -640 0 -283 82 -1029 120
-1080 8 -11 7 -29 -5 -64 -5 -17 -3 -20 10 -14 10 3 7 -4 -9 -20 -14 -14 -26
-31 -26 -37 0 -5 -5 -10 -10 -10 -6 0 -3 11 6 25 22 33 12 91 -17 100 -36 12
-69 -4 -84 -37 -7 -18 -10 -39 -7 -47 4 -10 1 -12 -9 -6 -11 7 -12 6 -2 -6 8
-9 9 -20 3 -29 -15 -24 -12 -29 23 -39 17 -5 24 -10 14 -10 -10 -1 -27 3 -37
9 -23 12 -29 -2 -24 -59 6 -61 40 -220 64 -298 18 -59 20 -86 5 -71 -15 15
-111 299 -140 415 -69 272 -80 373 -80 718 1 268 4 332 23 470 20 139 52 312
68 368 5 16 -12 17 -259 17 -276 0 -277 0 -277 -41 0 -5 81 -9 189 -9 105 0
192 -3 194 -7 3 -5 -6 -51 -19 -103 -109 -437 -125 -940 -43 -1335 60 -291
218 -654 375 -862 30 -40 54 -77 54 -83 0 -6 5 -8 10 -5 6 4 10 -16 10 -54 0
-33 -4 -62 -10 -66 -6 -4 -6 -16 1 -33 9 -25 8 -25 -20 8 -17 19 -30 39 -31
43 0 5 -20 35 -45 67 -52 67 -130 192 -168 267 l-26 51 -46 -44 c-25 -24 -45
-48 -45 -52 0 -4 -16 -20 -35 -35 -19 -15 -35 -33 -35 -40 0 -7 6 -4 14 6 17
22 27 22 19 0 -6 -16 -5 -16 10 -5 14 12 15 10 13 -12 -3 -33 -14 -44 -22 -22
-3 9 -11 16 -17 16 -5 0 -3 -8 6 -18 10 -10 15 -22 12 -25 -3 -4 1 -3 7 3 19
16 38 12 37 -7 0 -11 -3 -13 -6 -5 -9 22 -25 13 -18 -10 5 -18 4 -20 -4 -8
-15 21 -13 7 2 -24 8 -14 18 -22 22 -18 5 4 5 2 1 -5 -7 -13 43 -122 73 -158
l16 -20 -24 20 c-54 46 -235 389 -324 615 -91 232 -147 442 -196 730 -42 248
-46 312 -46 705 1 365 7 449 55 681 57 275 253 576 480 736 91 64 230 140 230
125z m605 -98 c17 -23 54 -64 84 -91 59 -54 59 -59 -9 -78 -101 -29 -200 15
-200 88 0 21 74 122 89 122 3 0 20 -19 36 -41z m2309 -20 c46 -62 48 -77 17
-113 -39 -46 -115 -57 -200 -29 l-52 16 64 58 c35 31 74 73 88 93 13 20 27 36
31 36 4 0 28 -27 52 -61z m-1949 -29 c-2 -3 6 -6 18 -5 12 0 24 -4 26 -10 6
-15 -67 -47 -90 -40 -27 9 -91 74 -84 85 3 6 1 10 -4 10 -6 0 -11 4 -11 10 0
5 33 -3 74 -18 41 -14 73 -29 71 -32z m1650 40 c7 -11 -74 -95 -82 -86 -4 3
-12 1 -19 -5 -10 -8 -25 -5 -59 15 -43 26 -60 43 -32 33 6 -2 46 9 87 24 83
31 96 33 105 19z m-2425 -25 c14 -8 49 -14 78 -15 l52 0 0 -55 0 -55 -46 0
c-81 0 -123 39 -124 113 0 31 5 32 40 12z m3087 -31 c-3 -27 -13 -54 -25 -66
-22 -23 -88 -38 -128 -30 -20 4 -24 9 -20 26 3 11 6 36 6 54 0 32 1 32 48 32
26 1 61 7 77 15 45 20 48 19 42 -31z m-2045 -44 c13 -6 56 -16 97 -23 l73 -12
-45 -33 c-53 -38 -63 -39 -122 -11 -46 22 -49 27 -39 67 7 26 6 25 36 12z
m436 -42 c3 -47 3 -47 -42 -67 -102 -45 -161 -120 -173 -220 -12 -106 68 -225
171 -253 44 -12 46 -14 46 -50 0 -36 -2 -38 -30 -38 -16 0 -30 4 -30 10 0 5
-15 13 -34 19 -89 24 -182 126 -207 224 -34 137 43 292 177 358 35 18 64 38
64 45 0 14 18 24 40 21 10 -2 16 -16 18 -49z m155 33 c3 -11 26 -30 51 -42
102 -48 187 -162 202 -271 18 -127 -94 -292 -213 -314 -18 -3 -37 -13 -42 -21
-15 -28 -46 -11 -49 27 -3 35 -2 36 43 48 32 9 61 27 94 60 82 82 101 185 52
281 -26 50 -104 118 -152 133 -39 11 -39 11 -39 65 0 49 2 53 24 53 15 0 26
-7 29 -19z m411 -13 c9 -36 8 -38 -36 -58 -58 -26 -70 -25 -123 12 l-46 33 88
16 c48 9 93 17 99 18 7 0 14 -9 18 -21z m-1330 -108 c35 -1 37 -17 11 -86 -14
-38 -35 -78 -46 -90 -28 -29 -121 -58 -163 -50 -69 13 -132 78 -151 157 -6 25
-4 27 45 33 66 9 147 39 184 70 l30 23 39 -28 c22 -16 45 -29 51 -29z m1745
25 c53 -33 151 -65 200 -65 l40 0 -9 -32 c-32 -109 -132 -174 -228 -148 -75
20 -105 49 -134 132 l-26 76 43 16 c24 10 49 24 55 32 16 18 14 18 59 -11z
m-2242 -61 c-9 -9 22 -104 50 -151 23 -41 24 -42 5 -52 -61 -33 -171 -20 -216
25 -13 13 -31 50 -40 82 -26 93 -27 91 60 91 42 0 78 2 82 5 3 3 19 6 35 6 17
0 28 -3 24 -6z m1380 -5 c64 -24 123 -109 123 -179 0 -51 -32 -113 -75 -146
-28 -21 -51 -29 -96 -32 -73 -5 -99 1 -139 34 -82 69 -92 199 -22 278 42 47
145 70 209 45z m1389 1 c75 0 76 -2 43 -98 -34 -102 -98 -137 -208 -114 -30 6
-55 13 -57 15 -2 1 10 29 26 60 16 32 32 78 36 103 l7 46 45 -6 c25 -3 73 -6
108 -6z m-784 -87 c-5 -15 -37 -23 -104 -23 -51 0 -59 3 -77 29 -12 16 -21 31
-21 33 0 2 30 4 68 4 42 0 78 6 97 16 l30 16 5 -31 c4 -18 4 -37 2 -44z
m-1278 51 c28 -10 63 -14 87 -11 35 5 38 3 29 -13 -5 -10 -22 -28 -37 -40 -23
-18 -36 -21 -76 -16 -72 10 -77 14 -77 57 0 45 5 46 74 23z m-163 -188 c62
-34 150 -43 224 -22 31 10 59 15 62 13 10 -11 -52 -113 -95 -156 -75 -75 -159
-88 -253 -41 -55 29 -98 68 -120 113 -22 43 -16 57 26 57 12 0 41 13 65 29 25
16 46 30 46 30 1 1 21 -10 45 -23z m1610 0 c24 -13 63 -30 86 -37 l42 -12 -19
-36 c-36 -71 -125 -135 -205 -146 -63 -10 -119 13 -177 73 -69 70 -113 164
-71 147 103 -39 221 -26 299 34 1 1 21 -10 45 -23z m462 -102 c26 -4 47 -12
47 -18 -1 -23 -42 -102 -68 -129 -41 -43 -79 -60 -122 -53 -40 6 -114 37 -143
60 -17 14 -17 15 1 28 26 18 122 139 122 154 0 8 20 4 58 -12 31 -13 78 -26
105 -30z m-2438 17 c8 -16 40 -57 71 -90 l55 -60 -58 -29 c-32 -16 -73 -33
-90 -37 -40 -8 -93 8 -121 38 -22 23 -82 134 -82 152 0 6 18 11 41 13 22 1 64
11 92 21 71 25 74 25 92 -8z m825 -206 c0 -1 -27 -8 -59 -15 l-59 -12 -41 33
c-30 25 -37 37 -28 44 6 6 23 26 36 45 l23 36 64 -64 c35 -35 64 -65 64 -67z
m797 27 c-6 -7 -26 -21 -44 -31 -31 -16 -38 -16 -81 -2 l-47 15 55 57 55 58
37 -42 c28 -32 34 -45 25 -55z m-1868 -94 c58 -87 156 -197 214 -239 l38 -28
-42 -30 c-40 -30 -46 -31 -141 -31 l-99 0 -16 38 c-9 20 -20 76 -26 124 -10
89 -1 267 13 252 4 -5 30 -44 59 -86z m459 57 c53 -35 144 -64 224 -72 37 -3
68 -9 68 -12 0 -3 -51 -34 -113 -69 -62 -34 -133 -75 -158 -90 l-47 -27 -38
19 c-76 36 -188 148 -167 166 5 4 33 17 64 29 31 12 71 35 90 51 19 16 35 29
37 30 1 0 19 -11 40 -25z m2029 -67 c24 -6 43 -16 43 -23 0 -18 -51 -85 -93
-122 l-37 -33 -108 55 c-59 30 -143 68 -186 84 l-79 28 55 7 c91 12 215 57
233 85 3 6 33 -8 68 -30 34 -22 81 -45 104 -51z m339 15 c9 -95 -7 -244 -32
-296 l-18 -37 -96 0 c-91 0 -97 1 -130 29 l-35 29 61 56 c61 55 167 187 208
258 11 21 24 38 28 38 3 0 10 -35 14 -77z m-1179 -138 c65 -9 145 -23 178 -31
224 -58 468 -180 622 -311 l53 -44 -48 -36 c-26 -20 -103 -84 -171 -142 -68
-58 -141 -121 -162 -139 -22 -19 -44 -30 -50 -26 -7 4 -9 3 -6 -3 3 -5 -11
-27 -33 -48 l-39 -38 -28 24 c-16 13 -52 35 -81 48 -28 13 -48 29 -45 34 3 6
1 7 -5 3 -6 -4 -39 3 -74 14 -65 21 -156 29 -195 16 -22 -7 -23 -5 -23 58 0
92 -3 96 -63 96 -44 0 -54 4 -74 28 l-22 27 -27 -27 c-48 -47 -11 -98 71 -98
l35 0 0 -61 c0 -51 -5 -67 -29 -102 -43 -60 -56 -113 -42 -165 22 -81 50 -100
390 -272 174 -87 352 -181 396 -209 282 -174 464 -446 529 -790 9 -46 16 -110
16 -142 l0 -59 -280 0 -280 0 0 -25 c0 -18 -10 -31 -32 -45 l-32 -19 90 -3 89
-3 3 -185 c6 -348 -30 -490 -170 -667 -116 -147 -278 -242 -482 -283 -75 -15
-127 -18 -291 -15 -185 3 -208 6 -310 33 -211 58 -367 139 -538 282 -140 117
-258 259 -341 412 l-37 66 28 14 c84 43 216 123 359 219 89 59 165 105 168
102 3 -4 6 -13 6 -20 0 -55 196 -399 208 -365 2 7 -2 20 -10 29 -8 10 -8 14
-1 10 7 -4 16 0 22 10 5 10 13 14 17 10 4 -4 -1 -14 -12 -22 -16 -13 -16 -14
-1 -9 9 3 17 1 17 -5 0 -6 5 -11 11 -11 8 0 9 4 0 13 -25 31 4 22 69 -21 38
-26 67 -48 64 -51 -2 -3 -10 1 -16 7 -17 17 -33 15 -19 -2 9 -11 8 -15 -6 -20
-10 -4 -14 -4 -10 0 4 4 -1 16 -10 26 -16 18 -16 19 3 12 15 -5 14 -2 -6 14
-13 11 -28 18 -32 16 -4 -3 -8 0 -8 7 0 9 -3 9 -14 0 -8 -6 -20 -10 -27 -9 -8
2 -13 -3 -11 -10 1 -8 -2 -11 -7 -8 -5 4 -12 2 -16 -4 -4 -6 -10 -8 -14 -6 -4
3 -8 -1 -8 -9 0 -8 4 -12 8 -9 4 2 10 -4 14 -15 8 -25 90 -101 110 -101 8 0
15 -5 15 -11 0 -6 7 -8 16 -5 8 3 12 2 9 -4 -3 -6 -2 -10 4 -10 5 0 13 5 16
10 3 5 12 10 18 10 7 0 7 -4 -2 -9 -12 -8 -9 -11 12 -16 15 -4 24 -11 21 -16
-7 -12 3 -11 27 2 11 5 16 15 13 21 -4 7 -2 8 5 4 9 -6 9 -11 0 -22 -9 -11 -8
-14 5 -14 9 0 16 5 16 11 0 5 5 7 12 3 9 -6 9 -9 0 -12 -31 -10 -6 -19 58 -20
43 -1 70 3 70 9 0 6 5 7 10 4 17 -11 89 26 87 45 -1 14 -5 15 -19 7 -13 -8
-14 -13 -5 -20 7 -5 0 -6 -18 -3 -16 3 -55 2 -87 -2 -47 -7 -60 -5 -80 10 -19
15 -20 18 -5 18 9 0 17 -4 17 -10 0 -5 23 -10 50 -10 30 0 50 4 50 11 0 6 7 9
15 5 8 -3 25 -1 37 4 13 5 19 9 14 9 -5 1 3 10 18 22 16 13 26 30 26 47 0 15
7 36 15 46 14 19 15 19 15 2 0 -16 2 -17 17 -5 15 13 16 10 11 -28 -4 -25 -2
-43 4 -43 12 0 -10 -22 -37 -38 -11 -6 -15 -12 -9 -12 17 0 65 40 59 50 -3 4
2 10 10 14 16 6 21 36 5 36 -5 0 -7 -7 -4 -15 4 -8 1 -15 -5 -15 -6 0 -11 11
-11 24 0 34 -10 57 -22 50 -6 -4 -8 2 -3 17 5 21 1 19 -30 -13 -19 -21 -41
-38 -48 -38 -8 0 -7 -4 3 -11 12 -9 12 -10 -4 -5 -13 4 -28 -4 -52 -29 -18
-19 -35 -31 -38 -26 -4 5 0 12 6 14 8 3 6 6 -4 6 -10 1 -18 -1 -18 -3 0 -2 -3
-11 -6 -20 -4 -11 0 -16 12 -16 9 0 15 -2 13 -5 -3 -2 -25 -1 -50 4 -24 5 -36
9 -26 10 21 1 49 26 40 35 -6 6 28 10 55 7 6 -1 12 2 12 7 0 5 16 17 36 28 43
23 90 94 99 152 4 25 2 64 -5 94 -18 71 -69 118 -219 198 -286 153 -432 236
-523 296 -110 73 -272 227 -342 324 -60 83 -127 221 -165 338 -30 92 -69 317
-57 329 3 3 37 8 74 10 l69 5 7 -89 c17 -209 81 -384 204 -558 106 -151 201
-234 392 -347 103 -60 117 -68 385 -213 157 -85 374 -204 383 -211 2 -1 9 -28
17 -60 14 -63 21 -162 17 -259 l-2 -60 -107 -70 c-143 -94 -148 -99 -117 -130
14 -13 14 -24 5 -73 -6 -31 -13 -66 -16 -77 -3 -11 0 -28 7 -38 12 -15 29 -19
106 -19 118 -1 127 5 118 88 l-6 62 37 29 c21 16 77 55 126 86 l87 58 0 177
c0 136 -5 205 -21 297 -12 66 -23 125 -24 131 -3 10 -116 75 -319 184 l-99 53
-18 -24 c-10 -13 -19 -27 -19 -31 0 -11 59 -47 227 -138 l149 -80 19 -77 c12
-55 19 -134 22 -265 l5 -186 -63 -46 c-35 -24 -90 -64 -121 -86 l-58 -42 0
-64 0 -64 -35 0 c-29 0 -37 5 -46 27 -5 15 -9 47 -7 72 l3 46 123 85 124 85
-4 175 c-4 138 -9 187 -24 230 -22 62 -15 58 -219 167 -544 293 -647 352 -743
423 -151 113 -267 262 -339 440 -43 105 -64 206 -72 340 l-6 115 -113 3 -113
3 3 32 3 32 106 0 c136 0 139 2 139 105 0 98 -6 103 -121 110 l-88 5 23 65
c91 257 276 483 510 624 33 20 63 36 68 36 4 0 8 -133 8 -295 0 -290 0 -296
-25 -357 -46 -117 -55 -180 -51 -353 3 -142 6 -169 31 -245 66 -205 163 -338
321 -442 61 -40 223 -130 528 -292 298 -158 384 -220 473 -341 l23 -30 -6 37
c-4 28 -1 39 12 46 11 6 13 11 5 16 -6 4 -11 12 -11 17 0 6 3 8 8 6 4 -3 7 16
7 41 1 26 3 88 5 138 3 85 1 95 -28 157 -59 127 -149 195 -480 364 -364 186
-448 244 -532 370 -101 150 -130 360 -76 539 35 115 158 253 279 312 61 30
176 62 223 62 21 0 24 4 24 40 0 39 -1 40 -33 40 -85 0 -269 -73 -369 -147
l-48 -35 0 235 0 235 83 11 c184 24 336 26 494 6z m-1350 -237 c-20 -24 -57
-65 -82 -93 l-46 -50 25 44 c27 48 125 155 134 147 2 -3 -11 -25 -31 -48z m23
-738 l0 -40 -85 0 c-83 0 -85 1 -85 24 0 52 7 56 91 56 l79 0 0 -40z m2740
-330 c0 -5 -2 -10 -4 -10 -3 0 -8 5 -11 10 -3 6 -1 10 4 10 6 0 11 -4 11 -10z
m-68 -42 c-9 -9 -12 -7 -12 12 0 19 3 21 12 12 9 -9 9 -15 0 -24z m-19 -37
c-4 -3 -10 -9 -13 -12 -3 -4 -10 -1 -17 6 -9 10 -6 13 13 13 14 0 21 -3 17 -7z
m-3286 -7 c-3 -3 -12 -4 -19 -1 -8 3 -5 6 6 6 11 1 17 -2 13 -5z m3238 -4 c3
-6 -1 -7 -9 -4 -18 7 -21 14 -7 14 6 0 13 -4 16 -10z m-92 -17 c-13 -2 -33 -2
-45 0 -13 2 -3 4 22 4 25 0 35 -2 23 -4z m-3120 -10 c-7 -2 -19 -2 -25 0 -7 3
-2 5 12 5 14 0 19 -2 13 -5z m-310 -808 c-3 -9 -8 -14 -10 -11 -3 3 -2 9 2 15
9 16 15 13 8 -4z m3317 -286 c0 -63 -42 -264 -70 -338 -28 -71 -111 -224 -127
-234 -5 -3 -7 128 -5 291 2 220 6 298 15 304 7 4 51 8 100 8 l87 0 0 -31z
m-1810 -429 c12 -12 18 -26 14 -31 -4 -8 1 -9 17 -4 20 6 22 5 12 -6 -10 -10
-8 -18 10 -38 18 -21 18 -23 2 -10 -62 50 -73 62 -68 77 4 9 2 13 -4 9 -6 -4
-13 0 -17 8 -8 21 11 18 34 -5z m298 -48 c27 -5 24 -26 -4 -29 -18 -3 -18 -2
1 6 20 9 20 10 -1 10 -11 1 -29 8 -40 17 -19 15 -19 16 1 9 11 -4 30 -10 43
-13z m132 -50 c0 -13 -12 -22 -22 -16 -10 6 -1 24 13 24 5 0 9 -4 9 -8z m3
-59 c-7 -2 -19 -2 -25 0 -7 3 -2 5 12 5 14 0 19 -2 13 -5z m774 -615 c-3 -8
-6 -5 -6 6 -1 11 2 17 5 13 3 -3 4 -12 1 -19z m76 -440 l7 -48 -104 0 -104 0
-6 28 c-4 15 -9 74 -11 131 l-5 104 73 74 c39 41 72 82 73 91 3 52 9 29 38
-143 18 -104 36 -211 39 -237z m-1550 403 c3 9 6 6 6 -7 1 -11 11 -29 23 -40
11 -10 38 -45 58 -78 22 -33 40 -52 42 -45 11 33 14 -122 4 -213 l-8 -68 -104
0 -104 0 0 28 c0 15 7 70 15 122 16 103 45 300 45 309 0 3 4 0 9 -8 7 -11 9
-11 14 0z m47 -21 c0 -5 -5 -10 -11 -10 -5 0 -7 5 -4 10 3 6 8 10 11 10 2 0 4
-4 4 -10z m80 6 c0 -2 -7 -7 -16 -10 -8 -3 -12 -2 -9 4 6 10 25 14 25 6z m17
-48 c-3 -8 -6 -5 -6 6 -1 11 2 17 5 13 3 -3 4 -12 1 -19z m1208 -68 c3 -5 1
-10 -4 -10 -6 0 -11 5 -11 10 0 6 2 10 4 10 3 0 8 -4 11 -10z m-970 -292 l-7
-98 61 0 61 0 0 -35 0 -35 -60 0 -60 0 -1 -37 c-1 -21 0 -42 1 -48 3 -18 -13
-120 -17 -107 -3 8 -27 12 -69 12 -35 0 -64 3 -64 8 -1 14 42 437 45 448 2 7
20 7 60 0 l57 -11 -7 -97z m823 -10 c7 -68 15 -136 17 -153 2 -16 7 -65 11
-107 l7 -78 -66 0 c-54 0 -66 -3 -70 -17 -3 -10 -5 3 -6 30 0 26 -4 47 -8 47
-5 0 -8 -25 -7 -55 1 -62 -13 -87 -78 -144 l-38 -33 0 136 0 136 28 0 c15 0
42 -4 59 -9 27 -8 33 -7 38 9 3 11 3 35 -1 55 l-6 35 -60 0 c-59 0 -59 0 -56
28 3 26 6 27 62 30 l59 3 -7 93 -6 93 32 11 c18 5 44 10 59 11 25 1 25 0 37
-121z m-588 -275 l0 -324 -41 33 -41 33 6 80 c3 44 6 177 6 295 l0 216 35 -4
35 -4 0 -325z m310 33 l0 -292 -40 -39 -40 -39 0 335 0 335 40 -4 40 -4 0
-292z m-160 -63 c-1 -297 -3 -361 -15 -377 -14 -19 -16 -19 -34 -2 -19 17 -20
33 -20 334 0 175 3 336 6 360 5 38 8 42 34 42 l29 0 0 -357z m-267 -70 l2
-131 -28 20 c-15 11 -40 35 -54 53 -23 29 -28 45 -30 107 -1 40 2 75 7 78 4 3
29 5 54 5 l46 -1 3 -131z"/>
<path d="M5025 9256 c-62 -16 -117 -39 -155 -66 -18 -13 -38 -19 -52 -15 -17
4 -34 -5 -66 -36 -43 -41 -44 -42 -25 -61 19 -18 19 -20 0 -91 -51 -196 37
-383 220 -469 116 -55 226 -54 348 1 64 30 148 110 180 172 48 91 57 209 25
311 -24 76 -24 78 -6 78 33 0 26 25 -20 71 -46 47 -78 61 -86 39 -2 -6 -28 3
-58 19 -104 57 -205 72 -305 47z m220 -100 c73 -34 130 -89 162 -154 24 -50
28 -69 28 -147 0 -76 -4 -98 -25 -138 -31 -61 -86 -112 -159 -146 -82 -38
-193 -37 -273 2 -211 104 -260 360 -97 512 74 69 137 95 234 95 63 0 90 -5
130 -24z m-401 -29 c22 -35 -36 -76 -62 -44 -10 11 -8 20 9 41 23 29 36 30 53
3z"/>
<path d="M4995 9117 c-93 -44 -159 -146 -159 -247 0 -115 61 -206 173 -258 45
-21 64 -24 121 -20 165 12 269 134 258 302 -10 148 -117 246 -270 246 -55 0
-85 -6 -123 -23z m213 -31 c15 -8 46 -33 68 -56 130 -131 70 -339 -111 -385
-98 -24 -179 12 -239 109 -59 95 -43 196 44 281 73 71 162 90 238 51z"/>
<path d="M5111 8891 c-8 -5 -10 -14 -7 -20 4 -6 2 -11 -4 -11 -7 0 -6 -5 2
-14 10 -10 17 -11 30 -2 10 6 18 16 18 22 0 18 -24 34 -39 25z"/>
<path d="M3659 8787 c19 -20 37 -35 39 -32 3 3 11 -3 19 -13 13 -15 13 -15 3
6 -6 12 -15 22 -20 22 -4 0 -23 12 -42 27 l-33 27 34 -37z"/>
<path d="M6505 8744 c-18 -16 -22 -22 -9 -15 18 9 53 42 43 41 -2 -1 -17 -12
-34 -26z"/>
<path d="M6404 8419 c-3 -5 -2 -9 3 -8 4 1 10 0 13 -1 17 -6 49 -5 42 2 -13
13 -51 18 -58 7z"/>
<path d="M4869 7224 c-35 -43 -218 -134 -269 -134 -25 0 -37 -27 -23 -49 29
-45 218 18 323 108 34 29 35 30 20 57 -19 34 -33 39 -51 18z"/>
<path d="M5324 7216 c-9 -14 -14 -32 -11 -41 17 -42 184 -132 265 -142 46 -5
54 -3 71 18 11 13 20 26 21 29 0 3 -23 11 -52 18 -68 16 -161 60 -225 106
l-52 37 -17 -25z"/>
<path d="M3969 7156 c-14 -31 -6 -54 23 -65 33 -12 60 14 56 53 -3 27 -7 31
-35 34 -27 3 -35 -1 -44 -22z"/>
<path d="M6200 7161 c-22 -42 1 -78 44 -67 31 8 40 33 21 62 -19 29 -51 31
-65 5z"/>
<path d="M5480 7390 c0 -5 5 -10 11 -10 5 0 7 5 4 10 -3 6 -8 10 -11 10 -2 0
-4 -4 -4 -10z"/>
<path d="M7089 6229 c-58 -21 -59 -107 -2 -126 33 -12 61 -4 87 25 22 25 16
62 -14 92 -22 22 -32 23 -71 9z"/>
<path d="M7245 5796 c-21 -31 -13 -71 16 -87 50 -26 111 31 86 82 -19 36 -80
39 -102 5z"/>
<path d="M7424 5776 c-13 -52 17 -82 64 -65 22 8 27 26 16 67 -5 17 -14 22
-40 22 -27 0 -35 -5 -40 -24z"/>
<path d="M7202 5573 l3 -28 163 -3 162 -2 0 30 0 30 -166 0 -165 0 3 -27z"/>
<path d="M6686 4962 c-3 -5 1 -9 9 -9 8 0 12 4 9 9 -3 4 -7 8 -9 8 -2 0 -6 -4
-9 -8z"/>
<path d="M6739 4913 c-13 -16 -12 -17 4 -4 9 7 17 15 17 17 0 8 -8 3 -21 -13z"/>
<path d="M6934 4845 c-3 -8 -4 -20 -2 -27 3 -7 7 -1 10 15 6 29 1 36 -8 12z"/>
<path d="M6685 4710 c-10 -11 -14 -20 -8 -20 5 0 18 9 28 20 10 11 14 20 8 20
-5 0 -18 -9 -28 -20z"/>
<path d="M6892 4650 c0 -14 4 -36 8 -50 6 -20 8 -21 8 -5 0 11 -4 34 -8 50 -7
27 -8 27 -8 5z"/>
<path d="M6530 4600 c0 -5 5 -10 11 -10 5 0 7 5 4 10 -3 6 -8 10 -11 10 -2 0
-4 -4 -4 -10z"/>
<path d="M6882 4595 c0 -11 3 -29 8 -40 11 -25 11 1 0 35 -6 20 -8 21 -8 5z"/>
<path d="M6831 3584 c0 -11 3 -14 6 -6 3 7 2 16 -1 19 -3 4 -6 -2 -5 -13z"/>
<path d="M3071 6214 c-11 -15 -21 -38 -21 -51 0 -29 42 -73 70 -73 31 0 70 44
70 78 0 34 -23 57 -66 66 -27 6 -35 3 -53 -20z"/>
<path d="M2904 5812 c-6 -4 -17 -18 -24 -31 -10 -20 -9 -27 7 -50 38 -51 106
-28 106 35 0 42 -54 70 -89 46z"/>
<path d="M2737 5793 c-5 -8 -10 -50 -8 -69 1 -16 27 -25 47 -17 23 8 36 50 24
74 -10 19 -54 27 -63 12z"/>
<path d="M2710 5570 l0 -30 160 0 160 0 0 30 0 30 -160 0 -160 0 0 -30z"/>
<path d="M3336 4465 c-3 -9 -6 -22 -5 -28 0 -7 5 -1 10 12 5 13 8 26 5 28 -2
2 -6 -3 -10 -12z"/>
<path d="M3000 3790 c0 -5 5 -10 10 -10 6 0 10 5 10 10 0 6 -4 10 -10 10 -5 0
-10 -4 -10 -10z"/>
<path d="M3023 3749 c-2 -23 3 -25 10 -4 4 8 3 16 -1 19 -4 3 -9 -4 -9 -15z"/>
<path d="M3391 3584 c10 -53 27 -81 23 -37 -4 45 -9 62 -21 74 -8 8 -8 -3 -2
-37z"/>
<path d="M3448 3548 c-7 -17 15 -19 29 -3 4 4 3 5 -4 2 -6 -4 -13 -2 -15 5 -3
8 -6 6 -10 -4z"/>
<path d="M3476 3433 c-6 -14 -5 -15 5 -6 7 7 10 15 7 18 -3 3 -9 -2 -12 -12z"/>
<path d="M5056 6489 c-64 -50 -70 -121 -15 -177 38 -38 85 -42 134 -12 60 37
74 80 47 146 -25 61 -114 84 -166 43z"/>
<path d="M5347 5539 c-32 -45 18 -96 68 -69 15 8 25 22 25 36 0 50 -65 73 -93
33z"/>
<path d="M5403 5309 c10 -6 25 -8 33 -5 9 3 12 1 9 -4 -3 -6 -3 -10 2 -11 84
-9 133 -5 74 6 -11 2 -26 7 -31 10 -6 3 -10 1 -10 -4 0 -6 -5 -11 -11 -11 -5
0 -8 4 -5 9 7 11 -18 21 -52 21 -24 -1 -25 -2 -9 -11z"/>
<path d="M5352 5248 l2 -53 3 49 4 48 37 -6 c26 -4 32 -2 22 4 -8 5 -27 10
-42 10 -27 0 -28 -1 -26 -52z"/>
<path d="M5569 5266 c6 -7 26 -17 44 -20 31 -7 31 -8 13 -21 -11 -8 -16 -15
-10 -15 5 0 17 7 26 14 16 12 16 14 -10 26 -15 8 -30 14 -34 14 -3 1 -10 4
-14 9 -13 13 -27 7 -15 -7z"/>
<path d="M5664 5218 c-4 -6 -3 -8 3 -5 6 4 16 0 23 -8 9 -11 9 -15 1 -15 -7 0
-9 -4 -6 -10 3 -5 11 -10 16 -10 6 0 7 5 4 10 -9 14 8 13 23 -2 7 -7 12 -8 12
-2 0 17 -68 55 -76 42z"/>
<path d="M5751 5167 c2 -1 13 -9 24 -17 19 -14 19 -14 6 3 -7 9 -18 17 -24 17
-6 0 -8 -1 -6 -3z"/>
<path d="M5679 5098 c10 -14 17 -15 33 -7 11 6 17 13 14 16 -3 3 -12 1 -19 -5
-10 -9 -17 -8 -27 1 -12 10 -12 9 -1 -5z"/>
<path d="M5931 3844 c-26 -33 -26 -39 -1 -64 25 -25 62 -26 83 -2 22 25 21 48
-3 72 -27 27 -55 25 -79 -6z"/>
<path d="M4241 3211 l-25 -19 19 -44 c59 -130 248 -349 350 -403 34 -19 37
-19 46 -3 5 9 16 23 24 31 12 12 8 19 -32 48 -142 102 -248 220 -314 351 -16
32 -33 58 -37 58 -4 0 -18 -9 -31 -19z"/>
<path d="M5266 3133 c-6 -14 -5 -15 5 -6 7 7 10 15 7 18 -3 3 -9 -2 -12 -12z"/>
<path d="M5281 3100 c0 -8 4 -24 9 -35 5 -13 9 -14 9 -5 0 8 -4 24 -9 35 -5
13 -9 14 -9 5z"/>
<path d="M5291 3024 c0 -11 3 -14 6 -6 3 7 2 16 -1 19 -3 4 -6 -2 -5 -13z"/>
<path d="M5260 2915 c0 -8 2 -15 4 -15 2 0 6 7 10 15 3 8 1 15 -4 15 -6 0 -10
-7 -10 -15z"/>
<path d="M5160 2890 c0 -5 5 -10 10 -10 6 0 10 5 10 10 0 6 -4 10 -10 10 -5 0
-10 -4 -10 -10z"/>
<path d="M5056 2664 c-33 -33 -12 -94 33 -94 16 0 51 38 51 55 0 19 -35 55
-54 55 -8 0 -22 -7 -30 -16z"/>
<path d="M5806 1835 c-9 -9 -16 -22 -16 -28 0 -7 -3 -21 -6 -33 -5 -18 0 -22
29 -27 57 -9 77 1 77 37 0 40 -9 53 -41 61 -18 4 -31 1 -43 -10z"/>
<path d="M4356 1818 c-9 -12 -16 -33 -16 -45 0 -21 4 -23 55 -23 52 0 55 1 55
26 0 14 -5 34 -10 45 -15 27 -64 25 -84 -3z"/>
<path d="M6886 8124 c-20 -19 -20 -38 -1 -54 17 -14 51 -5 59 16 13 33 -34 63
-58 38z"/>
<path d="M3100 8100 l0 -30 60 0 60 0 0 30 0 30 -60 0 -60 0 0 -30z"/>
<path d="M3295 8110 c-14 -44 48 -70 64 -27 12 32 3 47 -29 47 -20 0 -31 -6
-35 -20z"/>
<path d="M7020 8100 l0 -30 145 0 145 0 0 30 0 30 -145 0 -145 0 0 -30z"/>
<path d="M2950 7584 c-25 -14 -46 -27 -48 -29 -5 -5 24 -57 51 -89 l24 -30 47
28 c26 15 50 34 52 41 10 24 -45 105 -70 105 -6 0 -31 -12 -56 -26z"/>
<path d="M7191 7583 c-45 -56 -35 -95 32 -130 23 -12 31 -12 44 -1 16 13 63
83 63 93 0 8 -92 65 -106 65 -7 0 -22 -12 -33 -27z"/>
<path d="M2767 7470 c-26 -16 -47 -36 -47 -43 0 -8 17 -34 38 -57 35 -40 40
-42 62 -30 34 17 70 51 70 65 0 15 -57 95 -68 95 -4 0 -29 -13 -55 -30z"/>
<path d="M7375 7463 c-42 -47 -42 -63 0 -100 21 -18 44 -33 51 -33 14 0 84 81
84 97 0 13 -75 63 -94 63 -9 0 -27 -12 -41 -27z"/>
<path d="M2592 7330 c-23 -17 -42 -36 -42 -43 0 -17 73 -97 88 -97 20 0 82 61
82 80 0 20 -61 90 -77 90 -6 0 -29 -14 -51 -30z"/>
<path d="M7545 7327 c-19 -19 -35 -42 -35 -51 0 -21 58 -86 78 -86 17 0 92 77
92 95 0 12 -37 42 -78 64 -20 11 -26 9 -57 -22z"/>
<path d="M2433 7179 c-20 -12 -33 -29 -33 -41 0 -24 71 -98 93 -98 15 0 77 66
77 82 0 4 -14 23 -31 43 -36 40 -60 44 -106 14z"/>
<path d="M7697 7172 c-15 -15 -27 -37 -27 -49 0 -24 51 -83 73 -83 20 0 98 86
92 102 -8 19 -68 58 -91 58 -11 0 -32 -13 -47 -28z"/>
<path d="M2273 7014 c-18 -14 -33 -32 -33 -40 0 -21 77 -94 99 -94 19 0 71 66
71 91 0 24 -53 69 -81 69 -13 0 -39 -12 -56 -26z"/>
<path d="M7853 7018 c-31 -36 -35 -46 -22 -70 17 -34 51 -68 66 -68 21 0 93
70 93 91 0 24 -60 69 -92 69 -13 0 -34 -10 -45 -22z"/>
<path d="M2119 6840 c-35 -34 -30 -53 25 -95 44 -33 60 -32 91 10 31 39 27 64
-12 95 -36 28 -69 25 -104 -10z"/>
<path d="M2652 6858 c-30 -30 11 -85 44 -57 25 21 11 69 -21 69 -6 0 -16 -5
-23 -12z"/>
<path d="M7532 6858 c-30 -30 3 -77 40 -57 22 12 24 55 2 63 -22 8 -28 8 -42
-6z"/>
<path d="M7999 6841 c-16 -16 -29 -34 -29 -39 0 -17 46 -77 61 -80 18 -3 97
52 106 75 9 22 -50 73 -83 73 -15 0 -38 -12 -55 -29z"/>
<path d="M1332 6723 c-22 -9 -34 -41 -22 -63 17 -31 67 -27 82 6 11 23 10 29
-11 45 -24 20 -28 21 -49 12z"/>
<path d="M8856 6714 c-30 -30 -13 -74 29 -74 48 0 64 63 19 80 -32 13 -30 13
-48 -6z"/>
<path d="M2482 6688 c-34 -34 6 -90 48 -68 26 14 26 56 1 70 -25 13 -34 13
-49 -2z"/>
<path d="M7685 6676 c-29 -44 17 -86 56 -50 23 21 24 37 3 58 -22 22 -41 20
-59 -8z"/>
<path d="M2040 6671 c-7 -15 -6 -23 6 -35 20 -21 50 -20 58 0 8 21 8 20 -10
38 -21 21 -41 20 -54 -3z"/>
<path d="M8130 6671 c-14 -27 -2 -51 26 -51 30 0 51 35 33 56 -16 20 -46 17
-59 -5z"/>
<path d="M1907 6570 c-21 -16 -27 -30 -27 -59 0 -70 53 -111 117 -90 60 19 73
86 25 132 -39 38 -80 44 -115 17z"/>
<path d="M8235 6575 c-40 -21 -55 -43 -55 -78 0 -65 54 -98 116 -72 56 23 80
111 40 145 -23 19 -70 21 -101 5z"/>
<path d="M2350 6435 c-15 -19 -6 -61 16 -69 18 -7 64 18 64 35 0 42 -54 65
-80 34z"/>
<path d="M7822 6438 c-17 -17 -15 -53 3 -68 12 -10 21 -10 40 -2 40 19 29 82
-15 82 -9 0 -21 -5 -28 -12z"/>
<path d="M1775 6324 c-19 -19 -16 -43 7 -57 20 -13 48 6 48 34 0 28 -35 43
-55 23z"/>
<path d="M8407 6324 c-27 -27 20 -77 49 -53 23 19 13 53 -16 57 -14 2 -29 0
-33 -4z"/>
<path d="M2031 6176 c-29 -34 10 -93 46 -70 29 18 39 42 27 62 -14 22 -57 27
-73 8z"/>
<path d="M8134 6176 c-9 -24 0 -58 19 -70 36 -23 75 35 47 70 -16 18 -59 18
-66 0z"/>
<path d="M2250 6161 c-21 -41 21 -81 58 -55 38 26 22 74 -25 74 -12 0 -27 -9
-33 -19z"/>
<path d="M7914 6155 c-9 -38 2 -55 36 -55 23 0 33 6 39 23 13 32 -4 57 -39 57
-23 0 -31 -5 -36 -25z"/>
<path d="M2085 6030 c-61 -61 -87 -81 -121 -89 -49 -12 -72 -39 -81 -94 -4
-28 0 -40 25 -68 25 -28 37 -34 72 -34 35 0 47 6 71 33 31 34 38 77 18 114 -9
17 -6 26 23 55 18 19 52 48 76 64 42 30 42 30 27 59 -8 16 -19 31 -23 34 -5 3
-44 -30 -87 -74z m-77 -182 c-2 -28 -7 -33 -28 -33 -16 0 -26 6 -28 18 -6 30
6 47 33 47 24 0 26 -3 23 -32z"/>
<path d="M8044 6075 c-16 -25 -16 -26 32 -68 97 -85 106 -95 94 -116 -15 -28
-12 -83 5 -107 23 -34 68 -48 109 -34 98 32 83 175 -21 195 -29 5 -53 23 -108
81 -39 41 -76 74 -83 74 -6 0 -19 -11 -28 -25z m241 -230 c0 -27 -3 -30 -30
-30 -21 0 -31 5 -33 18 -5 25 17 49 42 45 16 -2 21 -10 21 -33z"/>
<path d="M1102 6033 l3 -38 65 0 65 0 0 35 0 35 -68 3 -68 3 3 -38z"/>
<path d="M1634 6045 c-28 -43 0 -95 51 -95 38 0 65 26 65 62 0 56 -85 81 -116
33z"/>
<path d="M8497 6052 c-38 -42 -8 -102 51 -102 54 0 83 68 44 103 -25 22 -75
21 -95 -1z"/>
<path d="M9002 6033 l3 -38 63 -3 62 -3 0 41 0 40 -66 0 -65 0 3 -37z"/>
<path d="M1074 5816 c-12 -49 -2 -60 56 -69 70 -10 80 -5 80 37 0 32 -3 36
-37 45 -64 18 -92 14 -99 -13z"/>
<path d="M9063 5833 c-31 -4 -33 -7 -33 -42 0 -45 12 -51 80 -42 45 6 45 6 48
49 3 42 3 42 -30 40 -18 0 -48 -3 -65 -5z"/>
<path d="M1514 5735 c-33 -50 20 -104 71 -71 27 18 34 63 13 84 -21 21 -66 14
-84 -13z"/>
<path d="M8637 5742 c-24 -27 -21 -59 8 -78 51 -33 104 21 71 71 -20 30 -56
33 -79 7z"/>
<path d="M8301 5593 c-37 -25 -21 -73 25 -73 29 0 48 24 40 54 -7 29 -38 39
-65 19z"/>
<path d="M1038 5559 c-3 -36 -1 -42 21 -51 14 -5 43 -8 65 -6 39 3 41 5 44 40
3 35 1 37 -35 47 -21 6 -50 11 -64 11 -24 0 -27 -4 -31 -41z"/>
<path d="M1882 5588 c-28 -28 -3 -72 39 -66 30 4 47 33 33 56 -14 21 -55 27
-72 10z"/>
<path d="M9120 5593 c-43 -5 -60 -25 -51 -61 8 -30 38 -38 98 -27 28 5 33 10
33 35 0 41 -10 60 -29 58 -9 0 -32 -3 -51 -5z"/>
<path d="M1445 5240 l-130 -130 -72 0 -73 0 0 -190 0 -190 59 0 59 0 142 -150
143 -150 308 0 309 0 0 -93 c0 -80 3 -98 25 -137 14 -25 63 -121 110 -214 46
-92 86 -170 89 -173 3 -4 41 11 54 22 1 1 -14 40 -34 86 -20 46 -52 127 -71
179 l-35 95 2 588 1 587 -378 0 -378 0 -130 -130z m540 -40 c73 -35 138 -105
165 -176 28 -76 25 -195 -9 -265 -118 -247 -468 -244 -599 6 -37 69 -38 195
-4 270 31 68 95 131 167 167 55 27 67 29 145 26 64 -3 98 -10 135 -28z"/>
<path d="M1756 5115 c-102 -36 -166 -164 -136 -273 13 -52 68 -115 124 -145
62 -32 148 -30 208 6 138 80 166 234 64 345 -22 25 -59 53 -81 63 -47 22 -125
24 -179 4z m161 -72 c50 -23 87 -83 87 -142 0 -117 -118 -191 -226 -143 -57
25 -90 71 -96 132 -12 123 120 208 235 153z"/>
<path d="M7907 5363 c-4 -3 -7 -215 -7 -470 l0 -463 378 1 377 0 74 82 c41 45
103 112 139 150 l64 67 69 0 69 0 0 190 0 190 -78 0 -77 0 -130 130 -130 130
-371 0 c-204 0 -374 -3 -377 -7z m281 -471 l2 -302 -28 0 c-29 0 -29 1 -36 75
-4 42 -4 178 0 303 l7 228 26 -2 26 -1 3 -301z m142 3 l0 -305 -30 0 -30 0 0
305 0 305 30 0 30 0 0 -305z m142 63 c0 -134 1 -270 1 -302 l0 -59 -33 -4 -33
-3 6 97 c4 54 7 191 7 306 l0 207 25 0 25 0 2 -242z m498 42 l0 -30 -160 0
-160 0 0 30 0 30 160 0 160 0 0 -30z m0 -150 l0 -30 -160 0 -160 0 0 30 0 30
160 0 160 0 0 -30z"/>
<path d="M1004 5337 c-3 -8 -4 -28 -2 -44 3 -25 8 -29 50 -37 64 -11 78 -4 78
38 0 42 -2 43 -68 52 -42 5 -53 4 -58 -9z"/>
<path d="M9135 5341 c-33 -7 -41 -25 -26 -64 11 -29 30 -33 90 -21 30 6 32 9
29 48 -3 38 -5 41 -33 43 -16 0 -43 -2 -60 -6z"/>
<path d="M1012 4553 c-20 -4 -23 -10 -20 -41 l3 -37 55 0 55 0 3 34 c5 48 -19
59 -96 44z"/>
<path d="M9133 4553 c-8 -2 -13 -22 -13 -44 l0 -39 60 0 60 0 0 39 c0 32 -4
40 -22 45 -27 7 -68 7 -85 -1z"/>
<path d="M1053 4303 c-25 -5 -37 -33 -28 -63 5 -17 15 -20 65 -20 63 0 79 14
63 56 -12 33 -36 39 -100 27z"/>
<path d="M9074 4286 c-3 -8 -4 -25 -2 -38 3 -21 9 -23 66 -26 l62 -3 0 41 0
40 -60 0 c-43 0 -62 -4 -66 -14z"/>
<path d="M8142 4129 l-12 -51 55 -61 c63 -70 64 -68 -31 -116 l-61 -31 -6 -52
c-2 -29 -4 -54 -2 -56 1 -2 27 11 56 29 30 17 84 47 121 66 62 31 71 33 131
27 l64 -6 7 28 c4 16 9 37 12 46 4 14 -6 18 -66 24 l-71 7 -86 98 c-47 55 -88
99 -92 99 -4 0 -13 -23 -19 -51z"/>
<path d="M1527 4066 c-35 -28 -20 -76 23 -76 27 0 56 46 41 64 -17 20 -48 26
-64 12z"/>
<path d="M8656 4067 c-37 -27 2 -96 41 -71 35 22 40 44 14 65 -28 23 -32 23
-55 6z"/>
<path d="M1100 4043 c-32 -12 -39 -43 -14 -67 21 -22 50 -20 74 4 39 39 -4 84
-60 63z"/>
<path d="M9060 4031 c-14 -27 -13 -37 6 -55 30 -30 94 -10 94 29 0 42 -80 62
-100 26z"/>
<path d="M1913 4006 c-28 -24 -28 -25 -26 -135 2 -61 -1 -111 -5 -111 -28 1
-46 37 -57 118 -4 34 -12 52 -21 53 -8 1 -20 2 -26 3 -27 4 -38 -17 -38 -73 0
-150 136 -256 221 -172 32 32 35 61 20 156 -10 56 -6 75 15 75 17 0 27 -24 48
-114 9 -38 18 -71 20 -74 3 -2 19 11 36 28 30 31 32 36 26 84 -10 76 -49 151
-90 170 -49 23 -90 20 -123 -8z"/>
<path d="M8628 3849 c-25 -14 -23 -56 3 -69 25 -14 44 -8 59 19 8 17 7 24 -10
41 -23 23 -28 24 -52 9z"/>
<path d="M1547 3843 c-12 -12 -7 -50 8 -63 35 -29 93 21 65 55 -13 15 -61 20
-73 8z"/>
<path d="M1592 3638 c-28 -28 -3 -72 39 -66 30 4 47 33 33 56 -14 21 -55 27
-72 10z"/>
<path d="M8583 3644 c-18 -8 -16 -49 1 -64 35 -28 93 11 70 48 -11 17 -48 25
-71 16z"/>
<path d="M8025 3539 c-49 -14 -81 -57 -128 -171 l-44 -107 81 -27 c44 -15 123
-47 175 -71 51 -23 95 -43 96 -43 4 0 45 84 42 86 -1 1 -26 13 -54 28 -83 41
-75 50 87 104 53 18 55 20 62 62 4 24 5 46 3 48 -3 3 -40 -5 -84 -16 -43 -12
-81 -22 -85 -22 -3 0 -6 14 -6 30 0 41 -27 80 -67 96 -36 16 -36 16 -78 3z
m46 -109 c20 -11 20 -13 -2 -102 l-10 -37 -37 17 c-20 9 -38 17 -40 18 -5 3
31 78 47 97 17 20 17 20 42 7z"/>
<path d="M1652 3438 c-21 -26 -17 -51 10 -67 22 -13 29 -13 42 -2 22 18 20 58
-3 71 -26 13 -36 13 -49 -2z"/>
<path d="M8522 3438 c-19 -19 -14 -56 8 -68 23 -12 54 0 64 26 8 21 8 20 -10
38 -18 19 -45 21 -62 4z"/>
<path d="M2140 3390 c-135 -26 -212 -165 -170 -309 20 -71 85 -134 150 -148
30 -5 30 -5 30 40 0 30 -5 49 -15 54 -32 18 -65 77 -65 116 0 51 24 101 56
116 35 16 96 14 122 -5 32 -22 62 -87 62 -133 0 -43 26 -69 56 -57 19 7 44 67
44 105 0 40 -32 111 -69 154 -45 51 -133 81 -201 67z"/>
<path d="M1712 3238 c-27 -27 -6 -68 35 -68 31 0 52 42 33 65 -15 18 -51 20
-68 3z"/>
<path d="M8452 3238 c-27 -27 -6 -68 34 -68 33 0 49 25 36 55 -13 27 -49 34
-70 13z"/>
<path d="M7696 2996 c-47 -79 -86 -148 -86 -152 0 -9 61 -54 73 -54 4 0 16 17
27 38 43 81 33 81 176 -3 71 -41 133 -75 139 -75 8 0 55 70 55 83 0 3 -61 40
-135 82 -74 43 -135 82 -135 87 0 5 10 27 21 50 21 40 21 42 3 56 -51 37 -47
40 -138 -112z"/>
<path d="M1784 3034 c-9 -34 15 -59 49 -50 53 13 41 76 -14 76 -22 0 -30 -6
-35 -26z"/>
<path d="M8372 3048 c-20 -20 -14 -48 14 -60 29 -14 57 -2 62 26 8 37 -48 62
-76 34z"/>
<path d="M8296 2864 c-24 -23 -20 -53 9 -66 21 -9 28 -8 45 7 25 23 25 30 0
55 -24 24 -34 25 -54 4z"/>
<path d="M2505 2769 c-113 -42 -175 -179 -130 -287 71 -169 310 -188 389 -30
56 112 14 247 -94 303 -41 21 -126 28 -165 14z m125 -114 c57 -29 76 -104 41
-161 -38 -63 -128 -70 -175 -13 -48 56 -46 110 4 160 33 33 83 39 130 14z"/>
<path d="M7401 2575 l-23 -35 48 -43 c118 -106 112 -99 84 -93 -14 3 -74 11
-134 17 l-109 11 -24 -25 -25 -25 48 -43 c27 -24 82 -75 124 -114 42 -38 94
-85 117 -102 l41 -33 26 34 26 35 -59 56 c-33 31 -68 63 -78 71 -14 11 -15 13
-3 14 21 0 189 -26 223 -35 16 -4 27 -3 27 3 0 5 11 20 25 33 13 13 25 27 25
31 0 3 -37 37 -82 75 -45 37 -116 98 -158 136 -41 37 -79 67 -85 67 -5 0 -21
-16 -34 -35z"/>
<path d="M2054 2562 c-23 -15 -25 -48 -4 -67 27 -25 70 -7 70 29 0 34 -39 56
-66 38z"/>
<path d="M8126 2554 c-23 -22 -20 -41 8 -59 19 -13 29 -14 45 -5 27 14 28 56
2 70 -27 14 -37 13 -55 -6z"/>
<path d="M2182 2388 c-34 -34 6 -90 48 -68 35 19 20 80 -20 80 -9 0 -21 -5
-28 -12z"/>
<path d="M7996 2379 c-8 -12 -12 -28 -9 -35 15 -40 83 -33 83 9 0 47 -47 64
-74 26z"/>
<path d="M3000 2300 c-8 -10 -70 -79 -137 -153 -68 -75 -123 -139 -123 -144 0
-5 14 -22 30 -38 l30 -29 44 43 c42 41 44 42 58 23 17 -25 74 -58 113 -66 112
-23 214 120 160 225 -21 39 -133 159 -149 159 -6 -1 -18 -9 -26 -20z m49 -140
c10 -5 26 -21 35 -35 16 -25 16 -28 1 -51 -31 -48 -79 -48 -117 -1 -16 20 -15
23 15 58 35 41 40 43 66 29z"/>
<path d="M7021 2179 c-101 -90 -102 -92 -84 -112 10 -12 74 -81 142 -154 l124
-132 26 18 c14 11 61 52 103 93 l77 75 -37 36 -38 37 -59 -60 -59 -59 -23 25
c-13 14 -23 27 -23 29 0 2 19 22 42 44 40 37 42 40 29 65 -23 43 -45 42 -90
-6 l-40 -43 -23 23 -23 23 62 60 c36 35 60 66 57 72 -11 19 -47 57 -54 57 -3
0 -52 -41 -109 -91z"/>
<path d="M2287 2224 c-4 -4 -7 -20 -7 -35 0 -22 6 -30 25 -35 33 -8 57 12 53
45 -2 21 -9 27 -33 29 -17 2 -34 0 -38 -4z"/>
<path d="M7882 2218 c-27 -27 -6 -68 34 -68 33 0 49 25 36 55 -13 27 -49 34
-70 13z"/>
<path d="M2430 2051 c-15 -28 -13 -39 10 -51 27 -14 57 -4 65 21 14 43 -53 70
-75 30z"/>
<path d="M7732 2058 c-20 -20 -14 -48 14 -60 29 -14 57 -2 62 26 8 37 -48 62
-76 34z"/>
<path d="M3402 1932 c-39 -50 -188 -266 -203 -293 -10 -19 -8 -25 12 -41 36
-28 198 -128 207 -128 5 0 20 17 34 39 l25 38 -51 32 c-28 17 -62 39 -75 50
-23 17 -23 19 -6 45 l17 26 53 -30 c29 -16 55 -30 57 -30 3 0 17 17 31 39 l26
39 -55 34 -55 34 19 24 20 24 63 -42 64 -42 27 33 c15 17 27 37 28 42 0 6 -47
40 -105 77 l-104 67 -29 -37z"/>
<path d="M6696 1927 c-52 -29 -77 -66 -83 -118 -5 -56 23 -104 75 -126 32 -13
46 -14 99 -3 69 13 83 9 83 -25 0 -18 -11 -28 -45 -45 -24 -12 -56 -20 -71
-18 -22 3 -28 -3 -41 -35 -9 -21 -12 -41 -8 -45 4 -4 39 -7 79 -7 63 0 78 4
115 28 106 70 103 216 -4 256 -31 12 -47 12 -96 2 -64 -13 -79 -10 -79 18 0
26 26 44 65 45 30 1 36 6 49 40 9 21 13 43 10 47 -11 18 -108 9 -148 -14z"/>
<path d="M2592 1898 c-7 -7 -12 -22 -12 -35 0 -27 42 -42 65 -23 28 23 11 70
-25 70 -9 0 -21 -5 -28 -12z"/>
<path d="M7582 1898 c-27 -27 -6 -68 35 -68 29 0 48 33 33 60 -12 22 -49 27
-68 8z"/>
<path d="M2758 1725 c-11 -24 -10 -29 7 -41 25 -18 55 -14 69 9 15 24 -3 51
-37 55 -21 3 -30 -3 -39 -23z"/>
<path d="M7402 1738 c-30 -30 0 -75 42 -64 29 7 40 31 26 57 -12 21 -50 25
-68 7z"/>
<path d="M3732 1354 c-33 -23 -45 -60 -31 -101 13 -39 34 -53 84 -53 83 0 114
105 46 157 -23 17 -73 16 -99 -3z"/>
<path d="M6399 1357 c-27 -21 -41 -58 -35 -90 9 -47 33 -67 78 -67 51 0 72 12
88 49 25 61 -14 121 -77 121 -21 0 -45 -6 -54 -13z"/>
</g>
</svg>
